# xmcd
#
# Track frame offsets: 
#        150
#        18944
#        40812
#        56687
#        72667
#        90852
#        105294
#        121601
#        136647
#        150131
#
# Disc length: 2318 seconds
#
# Revision: 0
# Processed by: cddbd v1.5.2PL0 Copyright (c) Steve Scherf et al.
# Submitted via: ExactAudioCopy v1.0b1
#
DISCID=66090c0a
DTITLE=When Saints Go Machine - Konkylie
DYEAR=2011
DGENRE=Electronic
TTITLE0=Konkylie
TTITLE1=Church And Law
TTITLE2=Parix
TTITLE3=Chestnut
TTITLE4=The Same Scissors
TTITLE5=Jets
TTITLE6=Kelly
TTITLE7=On The Move
TTITLE8=Whoever Made You Stand So Still
TTITLE9=Add Ends
EXTD=
EXTT0=
EXTT1=
EXTT2=
EXTT3=
EXTT4=
EXTT5=
EXTT6=
EXTT7=
EXTT8=
EXTT9=
PLAYORDER=
